<?xml version="1.0" standalone="no"?>
<!DOCTYPE svg PUBLIC "-//W3C//DTD SVG 20010904//EN"
 "http://www.w3.org/TR/2001/REC-SVG-20010904/DTD/svg10.dtd">
<svg version="1.0" xmlns="http://www.w3.org/2000/svg"
 width="604.000000pt" height="204.000000pt" viewBox="0 0 604.000000 204.000000"
 preserveAspectRatio="xMidYMid meet">
<metadata>
Created by potrace 1.16, written by Peter Selinger 2001-2019
</metadata>
<g transform="translate(0.000000,204.000000) scale(0.100000,-0.100000)"
fill="#000000" stroke="none">
<path d="M0 1020 l0 -1020 3020 0 3020 0 0 1020 0 1020 -3020 0 -3020 0 0
-1020z m6010 -10 l0 -1000 -3000 0 -3000 0 0 1000 0 1000 3000 0 3000 0 0
-1000z"/>
<path d="M1857 1300 c-70 -27 -109 -60 -142 -121 -36 -66 -40 -157 -12 -231
23 -59 102 -133 160 -150 98 -28 260 2 287 53 16 30 -9 34 -38 6 -34 -31 -82
-47 -143 -47 l-49 0 0 239 0 239 29 7 c35 7 103 -9 149 -36 40 -23 61 -16 36
12 -42 47 -192 63 -277 29z"/>
<path d="M2250 1050 l0 -260 80 0 80 0 0 153 c0 146 1 154 23 174 30 28 65 45
77 38 6 -4 10 -79 10 -186 l0 -179 81 0 80 0 -3 171 -3 171 -33 29 c-27 24
-41 29 -83 29 -49 0 -97 -17 -131 -48 -17 -14 -18 -10 -18 76 l0 92 -80 0 -80
0 0 -260z"/>
<path d="M2905 1178 c-81 -28 -135 -106 -135 -192 0 -159 188 -256 335 -173
41 23 64 51 52 63 -4 4 -17 -2 -30 -13 -40 -37 -86 -54 -135 -51 l-47 3 0 80
0 80 124 3 124 3 -6 45 c-11 97 -92 165 -198 163 -30 0 -67 -5 -84 -11z m123
-14 c20 -6 22 -12 22 -86 l0 -79 -52 3 -53 3 -3 74 c-4 90 11 105 86 85z"/>
<path d="M3364 1165 c-62 -31 -92 -70 -106 -139 -32 -151 105 -272 267 -236
54 12 115 52 115 76 0 20 -6 18 -51 -18 -32 -26 -51 -33 -99 -36 l-60 -4 0 86
0 86 120 0 120 0 0 35 c0 39 -27 101 -57 127 -58 53 -169 63 -249 23z m150 -1
c13 -5 16 -22 16 -85 l0 -79 -50 0 -50 0 0 78 c0 43 3 82 7 85 8 9 56 9 77 1z"/>
<path d="M3770 990 l0 -200 80 0 80 0 0 109 c0 117 15 178 52 218 15 16 28 21
45 17 13 -4 30 -1 38 6 9 7 17 11 19 9 2 -2 43 -84 93 -181 l89 -176 -18 -36
c-10 -20 -32 -43 -48 -51 -36 -19 -39 -35 -5 -35 39 0 72 53 166 272 92 215
102 243 81 243 -7 0 -31 -45 -53 -100 -22 -55 -44 -104 -48 -108 -4 -4 -31 42
-60 103 l-52 110 -108 0 -109 0 -31 -32 c-17 -17 -34 -41 -38 -52 -6 -16 -9
-9 -13 29 l-5 50 -77 3 -78 3 0 -201z"/>
<path d="M793 956 c-103 -33 -167 -90 -210 -183 -34 -73 -40 -145 -18 -218 64
-222 301 -310 498 -185 l48 30 47 -41 c59 -53 114 -77 189 -85 138 -15 285 72
338 200 54 129 9 296 -104 385 -55 43 -103 61 -181 68 -78 7 -137 -11 -210
-62 l-45 -31 -28 33 c-67 77 -226 121 -324 89z"/>
</g>
</svg>
